<?xml version="1.0" encoding="UTF-8"?>
<svg version="1.1" xmlns="http://www.w3.org/2000/svg" width="100" height="101">
<path d="M0 0 C1.29509491 -0.00953201 2.59018982 -0.01906403 3.92453003 -0.02888489 C5.32615181 -0.02862341 6.7277736 -0.0276861 8.12939453 -0.02612305 C9.58139162 -0.03001516 11.03338757 -0.03435088 12.48538208 -0.03910828 C15.52316992 -0.04655187 18.56084151 -0.04629304 21.59863281 -0.04101562 C25.4742861 -0.03522713 29.34946052 -0.05214563 33.22503471 -0.0753603 C36.22265361 -0.09015767 39.22015881 -0.09096116 42.21780777 -0.08785057 C43.6458239 -0.08836089 45.07384687 -0.0935439 46.50182724 -0.10366249 C62.65546455 -0.2040793 62.65546455 -0.2040793 69.62939453 4.9230957 C70.16822266 5.49286133 70.70705078 6.06262695 71.26220703 6.6496582 C71.81650391 7.21426758 72.37080078 7.77887695 72.94189453 8.3605957 C76.27398474 12.77336382 76.64717024 16.89645227 76.69360352 22.32470703 C76.70192703 23.0148439 76.71025055 23.70498077 76.71882629 24.41603088 C76.74283748 26.6879752 76.75168771 28.95963187 76.75830078 31.23168945 C76.76727448 32.81963686 76.77639646 34.40758343 76.78565979 35.99552917 C76.80212863 39.32174733 76.80984594 42.64786509 76.81274414 45.97412109 C76.81812325 50.22107647 76.85579171 54.46707859 76.9014883 58.71376514 C76.93134003 61.99362063 76.93846946 65.27324889 76.93947029 68.55322838 C76.94365719 70.1180425 76.95602974 71.68285825 76.97698784 73.24753761 C77.17241479 89.10025655 77.17241479 89.10025655 71.38720703 95.2746582 C66.1904881 100.21154118 61.60664486 101.52047848 54.52075195 101.56518555 C53.85012222 101.57190277 53.17949249 101.57862 52.48854065 101.58554077 C50.28150935 101.60446711 48.07478309 101.60844237 45.86767578 101.6105957 C44.32456846 101.61702804 42.78146235 101.62375672 41.23835754 101.63076782 C38.0062884 101.64272764 34.77432603 101.64645005 31.54223633 101.64526367 C27.41647197 101.64506071 23.29139817 101.67234468 19.16579723 101.70680809 C15.97859095 101.72913333 12.79154928 101.73309948 9.60427284 101.73204422 C8.08413632 101.73439242 6.56399471 101.74317168 5.04393578 101.75870895 C-9.71205298 101.89540144 -9.71205298 101.89540144 -16.61279297 97.2746582 C-18.67138672 95.23950195 -18.67138672 95.23950195 -20.05029297 93.2121582 C-20.75992187 92.20475586 -20.75992187 92.20475586 -21.48388672 91.17700195 C-23.78443531 87.30029897 -23.75950443 83.96012421 -23.80566406 79.54345703 C-23.81384155 78.86336578 -23.82201904 78.18327454 -23.83044434 77.48257446 C-23.85525022 75.23228829 -23.87180457 72.98206513 -23.88623047 70.73168945 C-23.89155415 69.96111395 -23.89687782 69.19053844 -23.90236282 68.39661217 C-23.92907736 64.31552501 -23.94845505 60.23446822 -23.96289062 56.15332031 C-23.97621233 52.78455343 -24.00403356 49.41639481 -24.04492188 46.04785156 C-24.09438519 41.97240774 -24.11902847 37.89751421 -24.12611771 33.82178307 C-24.13280778 32.27369872 -24.14797125 30.72562557 -24.17200851 29.17771339 C-24.3112954 19.66303391 -23.96636719 12.84929309 -17.16976929 5.77204895 C-12.05535314 1.07543562 -6.75863587 0.02743513 0 0 Z " fill="#4F14FC" transform="translate(23.61279296875,-0.274658203125)"/>
<path d="M0 0 C2.19050021 0.09017996 4.378466 0.24666208 6.5625 0.4375 C7.76003906 0.53933594 8.95757812 0.64117187 10.19140625 0.74609375 C11.11824219 0.82988281 12.04507813 0.91367187 13 1 C13.04898438 1.83144531 13.09796875 2.66289063 13.1484375 3.51953125 C13.22320312 4.60621094 13.29796875 5.69289063 13.375 6.8125 C13.44460937 7.89144531 13.51421875 8.97039063 13.5859375 10.08203125 C13.81195733 13.18626186 13.81195733 13.18626186 16 16 C16 16.99 16 17.98 16 19 C14.3603125 18.690625 14.3603125 18.690625 12.6875 18.375 C8.9161599 17.59653475 8.9161599 17.59653475 6 20 C2.1026276 20.50835292 0.49443274 20.32962183 -2.8125 18.125 C-5.79857385 15.22424254 -5.95683819 14.43881175 -6.375 10.1875 C-6.35511166 6.54130475 -6.06608692 6.07964321 -3.5625 3.0625 C-2.716875 2.381875 -1.87125 1.70125 -1 1 C-0.67 0.67 -0.34 0.34 0 0 Z " fill="#EEE8F4" transform="translate(20,43)"/>
<path d="M0 0 C3.93254008 -0.09895097 7.86459746 -0.1715042 11.7980957 -0.21972656 C13.79339014 -0.24971281 15.78833582 -0.30053786 17.78320312 -0.3515625 C19.03681641 -0.36445312 20.29042969 -0.37734375 21.58203125 -0.390625 C23.31803589 -0.4220459 23.31803589 -0.4220459 25.08911133 -0.45410156 C28 0 28 0 29.8828125 1.80859375 C31.51056547 5.0014938 31.28621254 7.69634857 31.1875 11.25 C31.16042969 12.51328125 31.13335937 13.7765625 31.10546875 15.078125 C31.07066406 16.04234375 31.03585938 17.0065625 31 18 C29.35 18 27.7 18 26 18 C25.67 13.38 25.34 8.76 25 4 C22.03 3.505 22.03 3.505 19 3 C19 7.95 19 12.9 19 18 C17.68 18 16.36 18 15 18 C14.93941406 17.07316406 14.87882812 16.14632812 14.81640625 15.19140625 C14.73261719 13.99386719 14.64882813 12.79632813 14.5625 11.5625 C14.48128906 10.36753906 14.40007813 9.17257813 14.31640625 7.94140625 C14.32343886 5.11429756 14.32343886 5.11429756 13 4 C11.35 4 9.7 4 8 4 C8 8.62 8 13.24 8 18 C6.35 18 4.7 18 3 18 C2.95101562 17.07316406 2.90203125 16.14632812 2.8515625 15.19140625 C2.77679688 13.99386719 2.70203125 12.79632813 2.625 11.5625 C2.55539063 10.36753906 2.48578125 9.17257813 2.4140625 7.94140625 C2.27742188 6.97074219 2.14078125 6.00007813 2 5 C1.34 4.67 0.68 4.34 0 4 C0 2.68 0 1.36 0 0 Z " fill="#EEE7F7" transform="translate(36,44)"/>
<path d="M0 0 C2.97 0.495 2.97 0.495 6 1 C6.33 0.67 6.66 0.34 7 0 C8.99958364 -0.04080783 11.00045254 -0.04254356 13 0 C13.01981934 0.59538574 13.03963867 1.19077148 13.06005859 1.80419922 C13.15516126 4.49492153 13.26489842 7.18485148 13.375 9.875 C13.4059375 10.81214844 13.436875 11.74929687 13.46875 12.71484375 C13.50742188 13.61074219 13.54609375 14.50664063 13.5859375 15.4296875 C13.6173584 16.25710449 13.6487793 17.08452148 13.68115234 17.93701172 C13.82599137 20.21986085 13.82599137 20.21986085 16 22 C16 22.99 16 23.98 16 25 C13.625 24.75 13.625 24.75 11 24 C9.6875 21.9375 9.6875 21.9375 9 20 C8.34 20 7.68 20 7 20 C6.67 15.05 6.34 10.1 6 5 C5.67 11.6 5.34 18.2 5 25 C3.35 25 1.7 25 0 25 C0 16.75 0 8.5 0 0 Z " fill="#683AE8" transform="translate(71,37)"/>
<path d="M0 0 C1.65 0 3.3 0 5 0 C5.01981934 0.59538574 5.03963867 1.19077148 5.06005859 1.80419922 C5.15516126 4.49492153 5.26489842 7.18485148 5.375 9.875 C5.4059375 10.81214844 5.436875 11.74929687 5.46875 12.71484375 C5.50742188 13.61074219 5.54609375 14.50664063 5.5859375 15.4296875 C5.6173584 16.25710449 5.6487793 17.08452148 5.68115234 17.93701172 C5.82599137 20.21986085 5.82599137 20.21986085 8 22 C8 22.99 8 23.98 8 25 C5.01942947 24.67777616 3.4444252 24.47119463 1.3503418 22.25097656 C-0.21148804 19.6474562 -0.35083584 18.24346348 -0.29296875 15.234375 C-0.28330078 14.34492187 -0.27363281 13.45546875 -0.26367188 12.5390625 C-0.23853516 11.61867188 -0.21339844 10.69828125 -0.1875 9.75 C-0.16719727 8.34621094 -0.16719727 8.34621094 -0.14648438 6.9140625 C-0.11119954 4.60878673 -0.06190281 2.3046894 0 0 Z " fill="#DED2F3" transform="translate(79,37)"/>
<path d="M0 0 C1.32 0 2.64 0 4 0 C4.04898438 0.83144531 4.09796875 1.66289063 4.1484375 2.51953125 C4.22320312 3.60621094 4.29796875 4.69289063 4.375 5.8125 C4.44460937 6.89144531 4.51421875 7.97039063 4.5859375 9.08203125 C4.81195733 12.18626186 4.81195733 12.18626186 7 15 C7 15.99 7 16.98 7 18 C5.865625 17.814375 4.73125 17.62875 3.5625 17.4375 C2.386875 17.293125 1.21125 17.14875 0 17 C-0.33 17.33 -0.66 17.66 -1 18 C-2.66617115 18.04063832 -4.33388095 18.042721 -6 18 C-6.33 17.01 -6.66 16.02 -7 15 C-6.195625 14.690625 -5.39125 14.38125 -4.5625 14.0625 C-2.10919595 13.23664655 -2.10919595 13.23664655 -1 12 C-0.7367754 8.05163095 -0.91002627 5.39620731 -3 2 C-2.01 2 -1.02 2 0 2 C0 1.34 0 0.68 0 0 Z " fill="#F8F5F9" transform="translate(29,44)"/>
<path d="M0 0 C3.5 0.25 3.5 0.25 5.5 2.25 C5.833728 5.38704316 6.02849028 7.41554166 4.3125 10.125 C1.84492892 11.65659584 0.35480169 11.67822025 -2.5 11.25 C-4.3125 10.125 -4.3125 10.125 -5.5 8.25 C-5.8125 5.1875 -5.8125 5.1875 -5.5 2.25 C-3.5 0.25 -3.5 0.25 0 0 Z " fill="#561FF3" transform="translate(23.5,47.75)"/>
<path d="M0 0 C0.33 1.32 0.66 2.64 1 4 C2.65 4.33 4.3 4.66 6 5 C6 9.29 6 13.58 6 18 C7.65 18 9.3 18 11 18 C11 18.33 11 18.66 11 19 C5.25 19.125 5.25 19.125 3 18 C-0.94150786 12.39093113 -0.28631708 6.55347992 0 0 Z " fill="#5923EE" transform="translate(33,44)"/>
<path d="M0 0 C2.64 0.33 5.28 0.66 8 1 C8 6.61 8 12.22 8 18 C6.68 18 5.36 18 4 18 C3.97421875 17.09636719 3.9484375 16.19273438 3.921875 15.26171875 C3.86515625 14.08222656 3.8084375 12.90273438 3.75 11.6875 C3.70359375 10.51574219 3.6571875 9.34398437 3.609375 8.13671875 C3.29945851 4.90521318 3.29945851 4.90521318 0.953125 3.08203125 C0.30859375 2.72496094 -0.3359375 2.36789063 -1 2 C-0.67 1.34 -0.34 0.68 0 0 Z " fill="#FEFCFB" transform="translate(47,44)"/>
<path d="M0 0 C1.32 0 2.64 0 4 0 C4 5.94 4 11.88 4 18 C2.68 18 1.36 18 0 18 C0 12.06 0 6.12 0 0 Z " fill="#FDFBFA" transform="translate(71,44)"/>
<path d="M0 0 C0.99 0 1.98 0 3 0 C3 6.6 3 13.2 3 20 C2.34 20 1.68 20 1 20 C-0.1482685 17.703463 -0.11561175 16.41686833 -0.09765625 13.8671875 C-0.09443359 13.06152344 -0.09121094 12.25585938 -0.08789062 11.42578125 C-0.07951172 10.58402344 -0.07113281 9.74226563 -0.0625 8.875 C-0.05798828 8.02550781 -0.05347656 7.17601562 -0.04882812 6.30078125 C-0.03702874 4.20049091 -0.01909306 2.1002367 0 0 Z " fill="#FEFDFB" transform="translate(80,38)"/>
<path d="M0 0 C3.3125 0.875 3.3125 0.875 5.3125 2.875 C2.54772547 5.63977453 0.1158247 5.39958441 -3.6875 5.875 C-4.6775 6.37 -4.6775 6.37 -5.6875 6.875 C-5.6875 6.215 -5.6875 5.555 -5.6875 4.875 C-6.6775 4.545 -7.6675 4.215 -8.6875 3.875 C-5.62672898 0.81422898 -4.42361413 -0.14995302 0 0 Z " fill="#F2EDF6" transform="translate(23.6875,43.125)"/>
<path d="M0 0 C0.66 0.33 1.32 0.66 2 1 C2 4.63 2 8.26 2 12 C1.01 12 0.02 12 -1 12 C-1.02687279 10.18757948 -1.04633715 8.37504767 -1.0625 6.5625 C-1.07410156 5.55316406 -1.08570313 4.54382812 -1.09765625 3.50390625 C-1 1 -1 1 0 0 Z " fill="#FDFDF9" transform="translate(41,50)"/>
<path d="M0 0 C0.99 0 1.98 0 3 0 C3.125 3.375 3.125 3.375 3 7 C2.34 7.66 1.68 8.32 1 9 C0.34 9 -0.32 9 -1 9 C-1.09765625 2.84765625 -1.09765625 2.84765625 -1 1 C-0.67 0.67 -0.34 0.34 0 0 Z " fill="#F8F6F9" transform="translate(15,48)"/>
<path d="M0 0 C2.31 0.33 4.62 0.66 7 1 C5.68 2.32 4.36 3.64 3 5 C1.68 4.01 0.36 3.02 -1 2 C-0.67 1.34 -0.34 0.68 0 0 Z " fill="#F6F4F6" transform="translate(47,44)"/>
<path d="M0 0 C6.75 0.75 6.75 0.75 9 3 C7 5 7 5 4.375 5.125 C3.59125 5.08375 2.8075 5.0425 2 5 C2.33 4.01 2.66 3.02 3 2 C2.01 1.34 1.02 0.68 0 0 Z " fill="#D2C4EC" transform="translate(20,43)"/>
<path d="M0 0 C2.475 0.495 2.475 0.495 5 1 C4.67 2.32 4.34 3.64 4 5 C2.68 4.67 1.36 4.34 0 4 C0 2.68 0 1.36 0 0 Z " fill="#EDE4F5" transform="translate(71,37)"/>
</svg>
